<mxfile host="app.diagrams.net" modified="2023-11-21T12:55:15.404Z" agent="Mozilla/5.0 (Windows NT 10.0; Win64; x64) AppleWebKit/537.36 (KHTML, like Gecko) Chrome/119.0.0.0 Safari/537.36" version="22.1.3" etag="DwBnIfN9He4jSPo9rFwX" type="github">
  <diagram name="PÃ¡gina-1" id="uQlUKMu0tkUeGVc6h_el">
    <mxGraphModel>
      <root>
        <mxCell id="0" />
        <mxCell id="1" parent="0" />
      </root>
    </mxGraphModel>
  </diagram>
</mxfile>
